<svg width="375" height="43" viewBox="0 0 375 43" fill="none" xmlns="http://www.w3.org/2000/svg">
<rect width="377" height="43" fill="black"/>
<path fill-rule="evenodd" clip-rule="evenodd" d="M201.969 21.4734C201.98 20.1144 201.878 18.8654 201.615 17.6324C201.304 16.1774 200.803 14.7994 199.968 13.5574C199.24 12.4754 198.323 11.6044 197.132 11.0454C196.043 10.5344 194.895 10.3724 193.703 10.4764C192.462 10.5844 191.342 11.0094 190.355 11.7704C189.296 12.5874 188.551 13.6464 187.992 14.8474C187.38 16.1644 187.038 17.5564 186.874 18.9934C186.651 20.9374 186.709 22.8724 187.116 24.7904C187.395 26.1084 187.841 27.3634 188.554 28.5134C189.292 29.7024 190.248 30.6624 191.531 31.2614C192.886 31.8924 194.306 32.0064 195.762 31.7364C197.072 31.4934 198.189 30.8774 199.121 29.9294C199.959 29.0774 200.549 28.0644 200.983 26.9574C201.685 25.1624 201.938 23.2874 201.969 21.4734ZM194.049 32.3304C193.813 32.3134 193.578 32.2964 193.342 32.2784C190.642 32.0714 188.239 31.1474 186.243 29.2824C184.713 27.8534 183.698 26.1064 183.198 24.0764C182.532 21.3704 182.73 18.7214 183.911 16.1864C185.149 13.5284 187.196 11.7324 189.944 10.7304C191.237 10.2594 192.58 10.0424 193.955 10.0064C195.659 9.9614 197.326 10.1674 198.918 10.7864C202.578 12.2114 204.813 14.8744 205.631 18.7014C206.137 21.0724 205.954 23.4144 205.007 25.6574C203.612 28.9624 201.111 31.0034 197.666 31.9164C196.715 32.1684 195.743 32.2894 194.758 32.3084C194.723 32.3094 194.689 32.3224 194.654 32.3304H194.049Z" fill="#FEFEFE"/>
<mask id="mask0" mask-type="alpha" maskUnits="userSpaceOnUse" x="206" y="10" width="23" height="23">
<path fill-rule="evenodd" clip-rule="evenodd" d="M206.492 10.4362H228.78V32.2837H206.492V10.4362Z" fill="white"/>
</mask>
<g mask="url(#mask0)">
<path fill-rule="evenodd" clip-rule="evenodd" d="M213.151 21.3646C213.196 21.3686 213.223 21.3736 213.249 21.3726C214.074 21.3656 214.9 21.3786 215.724 21.3456C216.725 21.3036 217.694 21.0886 218.605 20.6586C219.843 20.0736 220.738 19.1706 221.165 17.8476C221.467 16.9136 221.501 15.9576 221.343 14.9946C221.135 13.7236 220.53 12.6906 219.457 11.9546C218.502 11.3006 217.425 10.9886 216.287 10.9016C215.548 10.8446 214.803 10.8546 214.061 10.8556C213.469 10.8566 213.151 11.1986 213.151 11.7916C213.151 14.9276 213.151 18.0636 213.151 21.2006V21.3646ZM217.48 21.7446C217.928 21.8876 218.397 22.0026 218.838 22.1846C220.411 22.8326 221.742 23.8116 222.698 25.2316C223.152 25.9056 223.514 26.6416 223.904 27.3566C224.384 28.2386 224.852 29.1256 225.452 29.9346C225.839 30.4556 226.269 30.9366 226.82 31.2936C227.321 31.6186 227.864 31.7756 228.464 31.7156C228.643 31.6976 228.755 31.7546 228.778 31.8666C228.806 32.0056 228.71 32.1446 228.53 32.1716C228.214 32.2186 227.895 32.2616 227.575 32.2746C226.481 32.3196 225.407 32.2026 224.371 31.8246C222.832 31.2636 221.653 30.2586 220.767 28.8956C220.241 28.0876 219.838 27.2136 219.42 26.3476C218.998 25.4726 218.574 24.5986 217.995 23.8126C217.405 23.0126 216.684 22.3836 215.729 22.0546C215.208 21.8746 214.669 21.8066 214.122 21.7966C213.806 21.7906 213.49 21.7956 213.151 21.7956V21.9766C213.151 24.8196 213.151 27.6626 213.151 30.5066C213.151 31.0776 213.512 31.4416 214.089 31.4446C214.686 31.4476 215.282 31.4446 215.878 31.4456C215.937 31.4456 216.012 31.4366 216.051 31.4676C216.109 31.5126 216.172 31.5886 216.175 31.6536C216.177 31.7116 216.113 31.7916 216.057 31.8286C216.005 31.8616 215.924 31.8566 215.857 31.8566C212.853 31.8586 209.849 31.8576 206.845 31.8576C206.634 31.8576 206.516 31.7796 206.521 31.6446C206.526 31.5166 206.641 31.4456 206.844 31.4456C207.422 31.4456 207.999 31.4456 208.577 31.4456C209.081 31.4456 209.412 31.1746 209.511 30.6766C209.527 30.5926 209.536 30.5046 209.536 30.4176C209.537 24.2636 209.537 18.1086 209.534 11.9546C209.533 11.7736 209.504 11.5876 209.453 11.4136C209.343 11.0436 209.07 10.8536 208.683 10.8526C208.068 10.8506 207.454 10.8526 206.839 10.8516C206.802 10.8516 206.765 10.8536 206.729 10.8516C206.58 10.8436 206.491 10.7616 206.492 10.6376C206.494 10.5166 206.575 10.4466 206.725 10.4396C206.761 10.4376 206.798 10.4386 206.835 10.4386C209.802 10.4386 212.769 10.4316 215.736 10.4416C217.283 10.4476 218.822 10.5686 220.329 10.9506C221.344 11.2086 222.309 11.5836 223.147 12.2336C224.126 12.9926 224.683 13.9986 224.867 15.2156C225.002 16.0996 224.993 16.9796 224.721 17.8416C224.367 18.9626 223.633 19.7766 222.643 20.3776C221.768 20.9096 220.808 21.2196 219.813 21.4316C219.059 21.5926 218.296 21.6886 217.526 21.7396C217.505 21.7416 217.485 21.7446 217.48 21.7446Z" fill="#FEFEFE"/>
</g>
<mask id="mask1" mask-type="alpha" maskUnits="userSpaceOnUse" x="149" y="10" width="23" height="22">
<path fill-rule="evenodd" clip-rule="evenodd" d="M149 10.4361H171.997V31.8591H149V10.4361Z" fill="white"/>
</mask>
<g mask="url(#mask1)">
<path fill-rule="evenodd" clip-rule="evenodd" d="M155.729 21.1148H155.72V21.8018V30.0838C155.72 30.3448 155.718 30.6058 155.72 30.8678C155.723 31.2748 155.895 31.4448 156.298 31.4448C157.179 31.4448 158.059 31.4448 158.94 31.4458C159.711 31.4458 160.477 31.3828 161.234 31.2288C162.856 30.8988 164.279 30.1918 165.444 29.0008C166.485 27.9368 167.171 26.6618 167.598 25.2478C168.296 22.9388 168.371 20.5958 167.921 18.2338C167.663 16.8778 167.196 15.5968 166.452 14.4258C165.591 13.0698 164.449 12.0388 162.952 11.4248C161.981 11.0258 160.964 10.8568 159.919 10.8528C158.723 10.8488 157.526 10.8568 156.329 10.8488C155.923 10.8468 155.726 10.8978 155.727 11.4578C155.731 14.6768 155.729 17.8958 155.729 21.1148ZM152.05 21.1598C152.05 18.0598 152.051 14.9588 152.05 11.8588C152.05 11.3948 151.845 11.0618 151.47 10.9408C151.346 10.9008 151.21 10.8838 151.079 10.8818C150.483 10.8758 149.887 10.8808 149.29 10.8788C149.085 10.8788 148.998 10.8068 149 10.6508C149.002 10.5388 149.053 10.4668 149.166 10.4508C149.225 10.4418 149.285 10.4398 149.344 10.4398C152.825 10.4388 156.306 10.4308 159.787 10.4418C161.687 10.4478 163.552 10.6998 165.345 11.3608C166.738 11.8748 167.992 12.6168 169.054 13.6628C170.394 14.9818 171.241 16.5778 171.67 18.3988C172.015 19.8588 172.099 21.3358 171.865 22.8208C171.567 24.7208 170.78 26.3968 169.5 27.8328C168.048 29.4638 166.225 30.5028 164.158 31.1408C162.757 31.5728 161.32 31.8098 159.857 31.8338C158 31.8638 156.142 31.8538 154.285 31.8578C152.634 31.8608 150.983 31.8578 149.332 31.8578C149.118 31.8578 149.007 31.7868 149.006 31.6488C149.004 31.5128 149.12 31.4358 149.333 31.4358C149.915 31.4358 150.497 31.4388 151.08 31.4348C151.706 31.4318 152.05 31.0838 152.05 30.4608C152.051 29.1028 152.05 27.7458 152.05 26.3878V21.1598Z" fill="#FEFEFE"/>
</g>
<path fill-rule="evenodd" clip-rule="evenodd" d="M179.202 21.1501C179.202 24.2551 179.202 27.3601 179.201 30.4641C179.201 30.7441 179.248 31.0041 179.472 31.2001C179.667 31.3701 179.899 31.4441 180.155 31.4451C180.705 31.4461 181.256 31.4441 181.806 31.4461C181.982 31.4461 182.061 31.5121 182.073 31.6561C182.08 31.7471 182.043 31.8101 181.954 31.8291C181.874 31.8461 181.791 31.8571 181.709 31.8571C178.815 31.8581 175.922 31.8581 173.028 31.8581C172.996 31.8581 172.963 31.8591 172.932 31.8561C172.825 31.8441 172.73 31.8211 172.735 31.6801C172.74 31.5371 172.813 31.4551 172.95 31.4461C172.987 31.4431 173.024 31.4451 173.06 31.4451H174.629C175.129 31.4451 175.446 31.1921 175.555 30.7031C175.572 30.6231 175.582 30.5401 175.582 30.4581C175.583 24.2721 175.584 18.0851 175.58 11.8981C175.58 11.7321 175.548 11.5601 175.498 11.4001C175.388 11.0431 175.12 10.8541 174.747 10.8531C174.173 10.8501 173.6 10.8521 173.027 10.8511C172.972 10.8511 172.917 10.8491 172.863 10.8401C172.767 10.8261 172.721 10.7631 172.712 10.6701C172.703 10.5781 172.736 10.5031 172.828 10.4761C172.905 10.4541 172.989 10.4401 173.07 10.4401C175.945 10.4391 178.82 10.4391 181.696 10.4401C181.76 10.4401 181.826 10.4411 181.886 10.4591C181.991 10.4921 182.037 10.5701 182.027 10.6821C182.017 10.7871 181.953 10.8341 181.856 10.8461C181.81 10.8521 181.764 10.8521 181.719 10.8521C181.191 10.8521 180.664 10.8491 180.136 10.8531C179.537 10.8571 179.211 11.1841 179.202 11.7811C179.202 11.8221 179.202 11.8631 179.202 11.9041V21.1501Z" fill="#FEFEFE"/>
</svg>
